<svg width="286" height="242" viewBox="0 0 286 242" fill="none" xmlns="http://www.w3.org/2000/svg">
<path d="M259.85 225.31V82.6138C259.85 78.2536 258.012 74.521 254.336 71.4161C250.661 68.3111 246.242 66.7586 241.081 66.7586H192.818L189.343 141.596H88.713C83.5516 141.596 81.351 138.491 77.6754 141.596C73.9999 144.701 72.1621 145.502 72.1621 141.596V177.745C72.1621 182.105 73.9999 185.838 77.6754 188.943C81.351 192.047 85.7695 193.6 90.9309 193.6H230.389L259.85 225.31ZM233.699 182.144H83.4167V140.634L189.343 141.596L197.287 77.234H247.602V196.303L233.699 182.144Z" fill="#E9EFFF"/>
<path d="M52.6929 116.414H124.193V103.209H52.6929V116.414ZM52.6929 91.3796H159.943V78.1078H52.6929V91.3796ZM52.6929 61.3738H159.943V49.6555H52.6929V61.3738ZM16.9429 183.173V32.9658C16.9429 28.3762 18.6931 24.4471 22.1936 21.1788C25.6942 17.9104 29.9022 16.2762 34.8179 16.2762H177.818C182.733 16.2762 186.942 17.9104 190.442 21.1788C193.943 24.4471 195.693 28.3762 195.693 32.9658V133.104C195.693 137.693 193.943 141.622 190.442 144.891C186.942 148.159 182.733 149.793 177.818 149.793H46.0725L16.9429 183.173ZM41.4382 139.251H185.1V26.3883H27.1436L27.8056 154.698L41.4382 139.251Z" fill="#E9EFFF"/>
</svg>
